<svg xmlns="http://www.w3.org/2000/svg" xmlns:xlink="http://www.w3.org/1999/xlink" width="100" zoomAndPan="magnify" viewBox="0 0 75 37.5" height="50" preserveAspectRatio="xMidYMid meet" version="1.0"><defs><clipPath id="a8f9ec850f"><path d="M 27 4 L 50 4 L 50 35.15625 L 27 35.15625 Z M 27 4 " clip-rule="nonzero"/></clipPath><clipPath id="0ee634c606"><path d="M 61 4 L 74.503906 4 L 74.503906 30 L 61 30 Z M 61 4 " clip-rule="nonzero"/></clipPath><clipPath id="2db914cf82"><path d="M 0.492188 15 L 26 15 L 26 27 L 0.492188 27 Z M 0.492188 15 " clip-rule="nonzero"/></clipPath><clipPath id="1d4468f705"><path d="M 0.492188 17 L 26 17 L 26 35.15625 L 0.492188 35.15625 Z M 0.492188 17 " clip-rule="nonzero"/></clipPath><clipPath id="6ca41b73d0"><path d="M 0.492188 4 L 26 4 L 26 12 L 0.492188 12 Z M 0.492188 4 " clip-rule="nonzero"/></clipPath><clipPath id="c432035ce4"><path d="M 0.492188 1.851562 L 50 1.851562 L 50 6 L 0.492188 6 Z M 0.492188 1.851562 " clip-rule="nonzero"/></clipPath><clipPath id="ad5ca467d8"><path d="M 0.492188 4 L 6 4 L 6 30 L 0.492188 30 Z M 0.492188 4 " clip-rule="nonzero"/></clipPath></defs><g clip-path="url(#a8f9ec850f)"><path fill="#2f6b85" d="M 34.855469 29.964844 C 39.839844 29.96875 44.824219 29.96875 49.808594 29.972656 L 49.808594 25.375 C 44.054688 25.375 38.300781 25.375 32.546875 25.375 L 32.546875 10.296875 C 33.464844 9.699219 34.480469 9.585938 35.558594 9.570312 L 45.175781 9.578125 L 45.175781 13.480469 L 49.808594 13.480469 C 49.808594 10.648438 49.808594 7.816406 49.808594 4.980469 L 35.554688 4.980469 C 35.554688 4.980469 30.332031 4.914062 27.917969 8.25 C 27.917969 17.214844 27.917969 26.179688 27.917969 35.148438 L 29.632812 33.242188 C 30.832031 31.917969 31.691406 31.050781 32.519531 30.570312 C 33.21875 30.167969 34.027344 30.015625 34.855469 29.964844 Z M 34.855469 29.964844 " fill-opacity="1" fill-rule="nonzero"/></g><path fill="#2f6b85" d="M 54.007812 4.980469 L 58.636719 4.980469 L 58.636719 29.972656 L 54.007812 29.972656 Z M 54.007812 4.980469 " fill-opacity="1" fill-rule="nonzero"/><g clip-path="url(#0ee634c606)"><path fill="#2f6b85" d="M 61.714844 29.972656 L 74.507812 29.972656 L 74.507812 25.375 L 66.347656 25.375 L 66.347656 4.980469 L 61.714844 4.980469 Z M 61.714844 29.972656 " fill-opacity="1" fill-rule="evenodd"/></g><g clip-path="url(#2db914cf82)"><path fill="#2f6b85" d="M 5.125 19.710938 C 9.464844 19.710938 13.800781 19.707031 18.152344 19.710938 C 20.285156 19.738281 21.792969 20.085938 23.25 20.925781 C 24.042969 21.382812 24.765625 21.964844 25.535156 22.710938 L 25.519531 17.277344 C 24.167969 15.769531 21.667969 15.171875 18.152344 15.121094 L 0.492188 15.113281 C 0.492188 18.492188 0.492188 22.945312 0.492188 26.324219 L 5.125 26.324219 Z M 5.125 19.710938 " fill-opacity="1" fill-rule="nonzero"/></g><g clip-path="url(#1d4468f705)"><path fill="#2f6b85" d="M 0.492188 17.898438 L 0.492188 29.972656 L 16.039062 29.972656 C 17.625 29.972656 19.507812 29.746094 20.933594 30.570312 C 21.761719 31.046875 22.621094 31.914062 23.820312 33.242188 L 25.535156 35.148438 L 25.535156 28.386719 C 24.765625 27.640625 24.042969 27.058594 23.25 26.601562 C 21.792969 25.761719 20.285156 25.414062 18.152344 25.386719 L 5.125 25.375 L 5.125 17.898438 Z M 0.492188 17.898438 " fill-opacity="1" fill-rule="nonzero"/></g><g clip-path="url(#6ca41b73d0)"><path fill="#2f6b85" d="M 18.347656 9.582031 C 21.761719 9.652344 24.195312 10.253906 25.519531 11.734375 C 25.519531 11.734375 25.519531 7.257812 25.519531 7.144531 C 24.167969 5.640625 21.667969 5.039062 18.152344 4.992188 L 0.492188 4.980469 L 0.492188 9.570312 C 6.414062 9.570312 12.441406 9.464844 18.347656 9.582031 Z M 18.347656 9.582031 " fill-opacity="1" fill-rule="nonzero"/></g><g clip-path="url(#c432035ce4)"><path fill="#e7af28" d="M 49.785156 2.945312 L 49.785156 1.859375 L 34.085938 1.867188 C 31.394531 1.90625 28.664062 2.761719 26.699219 4.660156 C 24.734375 2.761719 22 1.90625 19.3125 1.867188 L 19.285156 1.859375 L 0.496094 1.859375 L 0.496094 2.945312 L 19.285156 2.945312 L 19.285156 2.933594 C 19.636719 2.941406 19.957031 2.957031 20.246094 2.988281 C 21.90625 3.097656 23.175781 3.457031 24.410156 4.167969 C 25.203125 4.628906 25.929688 5.207031 26.699219 5.953125 C 27.46875 5.207031 28.191406 4.628906 28.984375 4.167969 C 30.21875 3.457031 31.492188 3.101562 33.152344 2.988281 C 35.554688 2.734375 38.507812 2.945312 40.957031 2.945312 Z M 49.785156 2.945312 " fill-opacity="1" fill-rule="nonzero"/></g><g clip-path="url(#ad5ca467d8)"><path fill="#2f6b85" d="M 0.492188 4.980469 L 5.125 4.980469 L 5.125 29.972656 L 0.492188 29.972656 Z M 0.492188 4.980469 " fill-opacity="1" fill-rule="nonzero"/></g></svg>